<svg width="21" height="14" viewBox="0 0 21 14" fill="none" xmlns="http://www.w3.org/2000/svg">
<path fill-rule="evenodd" clip-rule="evenodd" d="M6.85204 1.69784L6.63159 1.7518L6.65914 8.76627C6.65914 8.76627 6.76937 11.1134 5.19864 11.1134C3.18701 11.1134 3.24212 8.82023 3.24212 8.82023V4.90831V2.26439C3.24212 2.26439 1.25804 2.48022 1.17537 2.48022C1.12026 2.48022 0.514016 2.53418 0.0179962 2.56116V2.56116C0.0179962 2.56116 -0.0371171 7.28244 0.0455528 9.30584C0.100666 10.7627 0.982478 12.6512 2.3052 13.2987C3.49013 13.8652 4.42706 14.0811 5.66711 13.9732C6.57648 13.8922 7.54096 13.3796 8.06453 13.0289C9.96594 11.7339 9.93839 9.30584 9.93839 9.30584V1.13129C9.71793 1.18524 8.22987 1.42805 7.98186 1.48201C7.34806 1.58993 6.85204 1.69784 6.85204 1.69784" fill="#F5A623"/>
<path fill-rule="evenodd" clip-rule="evenodd" d="M20.7125 2.74999C20.2992 0.861481 17.7639 -0.325583 15.1461 0.0790976L11.0952 0.834502C11.0952 0.834502 11.2881 2.74999 11.3432 6.98565C11.2881 11.7879 11.2055 11.7339 10.9023 13.5415H11.1228V13.5685H11.5637H11.6739V13.5685L14.0714 13.5415L15.1185 13.5685C14.8981 12.8131 14.7327 11.7609 14.65 10.6548V10.5468H14.6776C14.65 10.0612 14.6225 9.54863 14.5949 8.98208L14.5398 4.07195C17.7364 3.01978 18.4529 4.53059 18.3977 5.5288C18.3151 7.41731 16.4688 8.1997 15.1736 8.1997C15.4216 8.1997 15.3941 8.22668 15.6421 8.22668C18.0946 8.22668 19.6378 7.6871 20.4645 5.9065C20.8778 5.09714 21.0707 4.47663 20.7125 2.74999" fill="#F5A623"/>
</svg>
