<svg height="64" viewBox="0 0 47 64" width="47" xmlns="http://www.w3.org/2000/svg" xmlns:xlink="http://www.w3.org/1999/xlink"><defs><path id="a" d="m44.9472249 31.9436665-.037646-.1504484c-5.5412662-17.3760404-22.0522625-29.71212867-22.7544-30.22617184l-2.1311937-1.56704626.13799 2.63264313c0 .11293783.3885115 10.31783227-9.5030279 18.80509677-10.74398976 9.2270479-10.68142708 16.8369451-10.65623951 20.9239675l.01272921.5641475c0 11.1450952 8.17905521 19.478255 19.8807145 20.8520611-.6370019-.1000732-1.2876809-.2299382-1.9406619-.4295429-3.7736674-1.1659409-5.9800176-3.8111778-6.4063105-7.6224911l-.1002086-.7521064c-.3385427-2.9461336-.777294-6.5944047 5.666527-13.5147583 2.4070383-2.5825388 4.5007215-5.3657657 6.2308099-8.261795l.8650442-1.4541085 1.1407534 1.2535558c3.4100725 3.7232921 6.0176634 7.4843657 7.772804 11.1450951 1.6171506 3.234572 1.71763 8.3496808 1.5920984 9.4403298-.6142518 5.5663184-4.6385761 9.7160389-10.029394 10.3176969-.3514072.0400834-.8773671.0789481-1.5212752.0933023.0566043.0004063.1105003.0069063.1673754.0069063 12.737329 0 22.7040249-10.2425404 22.7040249-23.3184121 0-3.1339571-1.0530031-8.5123166-1.0905136-8.7379214z"/><mask id="b" fill="#fff"><use fill="#fff" fill-rule="evenodd" xlink:href="#a"/></mask></defs><g fill="none" fill-rule="evenodd"><use fill="#febe05" fill-rule="nonzero" xlink:href="#a"/><path d="m-124.75575 135.389573c22.526116-3.149091 50.215315-17.283467 83.0675982-42.4031299 41.19454322-31.4983594 69.8581703-74.6075257 85.9908813-129.327499l89.6588305-.5873365v275.0692584h-258.71731z" fill="#ff5800" mask="url(#b)"/><path d="m-154 137.746806c57.3915332-10.098277 97.9349219-21.696864 121.6301662-34.795763 35.54286648-19.6483482 65.9867848-50.5696543 90.7933902-111.28858853 16.5377369-40.47928947 24.0093578-58.47642607 22.4148627-53.99140987h23.8788909v313.7497594h-258.71731z" fill="#ef2b18" mask="url(#b)"/></g></svg>