<svg height="51" viewBox="0 0 54 51" width="54" xmlns="http://www.w3.org/2000/svg" xmlns:xlink="http://www.w3.org/1999/xlink">
  <defs>
    <path id="a" d="m0 15.0784908c0-8.44395404 6.45333354-15.0784908 14.6666667-15.0784908 4.64 0 9.0933332 2.08052724 12 5.58970318 2.9066667-3.50917594 7.3599999-5.58970318 12-5.58970318 8.2133331 0 14.6666666 6.63453676 14.6666666 15.0784908 0 14.9688358-17.0096995 26.2592932-26.6666666 35.2288378-9.6356984-9.0181112-26.6666667-20.2354938-26.6666667-35.2288378z"/>
    <mask id="b" fill="#fff"><use fill="#fff" fill-rule="evenodd" xlink:href="#a"/></mask>
  </defs>
  <g fill="none" fill-rule="evenodd" transform="translate(.5 .422654)">
    <use fill="#febe05" fill-rule="nonzero" xlink:href="#a"/>
    <path d="m-64.9675164 68.4289745c22.5261158-3.1490911 50.2153153-17.2834678 83.0675985-42.4031303 41.1945432-31.4983594 69.8581703-74.6075257 85.9908809-129.3274992l89.658831-.587336v275.069258h-258.7173104z" fill="#ff5800" mask="url(#b)"/>
    <path d="m-94.2117661 70.7862073c57.3915332-10.0982769 97.93492193-21.6968647 121.6301662-34.7957634 35.5428665-19.648348 65.9867847-50.5696541 90.7933899-111.2885883 16.537737-40.4792896 24.009358-58.4764266 22.414863-53.9914096h23.878891v313.749759h-258.7173101z" fill="#ef2b18" mask="url(#b)"/>
  </g>
</svg>
