<svg xmlns="http://www.w3.org/2000/svg" width="59" height="59" viewBox="0 0 59 59">
  <g fill="#353b50">
    <path d="m57.4497682 10.1676971c-.7523184-1.93778984-1.7554096-3.57921178-3.3968316-5.22063373-1.6414219-1.64142195-3.2828439-2.64451314-5.2206337-3.39683153-1.8693972-.72952087-4.0351623-1.23106646-7.1584235-1.36785162-3.1460587-.13678517-4.1491499-.18238022-12.1738794-.18238022s-9.0278207.02279753-12.1738794.18238022c-3.1460588.13678516-5.2890263.63833075-7.1584235 1.36785162-1.93778984.75231839-3.57921178 1.75540958-5.22063373 3.39683153s-2.64451314 3.28284389-3.39683153 5.22063373c-.72952087 1.8693972-1.23106646 4.0351623-1.36785162 7.1584235-.13678517 3.1460587-.18238022 4.1491499-.18238022 12.1738794s.02279753 9.0278207.18238022 12.1738794c.13678516 3.1460588.63833075 5.2890263 1.36785162 7.1584235.75231839 1.9377898 1.75540958 3.5792118 3.39683153 5.2206337 1.64142195 1.641422 3.28284389 2.6445132 5.22063373 3.3968316 1.8693972.7295208 4.0351623 1.2310664 7.1584235 1.3678516 3.1460587.1367851 4.1491499.1823802 12.1738794.1823802s9.0278207-.0227975 12.1738794-.1823802c3.1460588-.1367852 5.2890263-.6383308 7.1584235-1.3678516 1.9377898-.7523184 3.5792118-1.7554096 5.2206337-3.3968316 1.641422-1.6414219 2.6445132-3.2828439 3.3968316-5.2206337.7295208-1.8693972 1.2310664-4.0351623 1.3678516-7.1584235.1367851-3.1460587.1823802-4.1491499.1823802-12.1738794s-.0227975-9.0278207-.1823802-12.1738794c-.1367852-3.1460588-.6383308-5.2890263-1.3678516-7.1584235zm-3.9439722 31.2554095c-.1367852 2.8724885-.6155332 4.4455178-1.0258887 5.4714065-.5243432 1.3678517-1.1854714 2.3709429-2.2113602 3.3968316-1.0258887 1.0258887-2.0061823 1.6642194-3.3968315 2.2113601-1.0486862.4103555-2.5989181.8891035-5.4714065 1.0258887-3.1232612.1367852-4.0351623.1823802-11.9231066.1823802-7.8879444 0-8.822643-.0227975-11.9231067-.1823802-2.8724884-.1367852-4.4455177-.6155332-5.4714065-1.0258887-1.3678516-.5243431-2.37094278-1.1854714-3.39683149-2.2113601-1.02588872-1.0258887-1.66421948-2.0061824-2.21136013-3.3968316-.41035549-1.0486862-.88910355-2.598918-1.02588872-5.4714065-.13678516-3.1232612-.18238021-4.0579598-.18238021-11.9231066s.02279753-8.822643.18238021-11.9231066c.13678517-2.8724885.61553323-4.4455178 1.02588872-5.4714065.52434312-1.3678517 1.18547141-2.37094285 2.21136013-3.39683157 1.02588871-1.02588871 2.00618239-1.66421947 3.39683149-2.21136012 1.0486863-.41035549 2.5989181-.88910356 5.4714065-1.02588872 3.1232612-.13678516 4.0579598-.18238021 11.9231067-.18238021 7.8651468 0 8.8226429.02279752 11.9231066.18238021 2.8724884.13678516 4.4455178.61553323 5.4714065 1.02588872 1.3678516.52434312 2.3709428 1.18547141 3.3968315 2.21136012 1.0258888 1.02588872 1.6642195 2.00618237 2.2113602 3.39683157.4103555 1.0486862.8891035 2.598918 1.0258887 5.4714065.1367851 3.1232612.1823802 4.0579598.1823802 11.9231066s-.0455951 8.822643-.1823802 11.9231066z"/>
    <path d="m30 14c-8.2781955 0-15 6.7218045-15 15s6.7218045 15 15 15 15-6.7218045 15-15-6.7218045-15-15-15zm0 24.7443609c-5.3684211 0-9.7443609-4.3533835-9.7443609-9.7443609 0-5.3684211 4.3533835-9.7443609 9.7443609-9.7443609s9.7443609 4.3533835 9.7443609 9.7443609c0 5.3684211-4.3759398 9.7443609-9.7443609 9.7443609z"/>
    <circle cx="45.5" cy="13.5" r="3.5"/>
  </g>
</svg>
