<svg height="47" viewBox="0 0 161 47" width="161" xmlns="http://www.w3.org/2000/svg"><g fill="none" fill-rule="evenodd"><g transform="translate(85.453 .098)"><path d="m20.0517137 9.01092439-.6451306.16098816.0806413 20.92846115s.3225653 7.0029851-4.2739905 7.0029851c-5.88681715 0-5.72553449-6.8419969-5.72553449-6.8419969v-11.6716418-7.88842s-5.80617581.6439526-6.0480998.6439526c-.16128266 0-1.93539193.1609882-3.38693588.2414823s-.16128267 14.0864642.08064133 20.1235203c.16128266 4.3466804 2.74180524 9.9812661 6.61258911 11.9131241 3.46757723 1.6903757 6.20938243 2.3343283 9.83824233 2.012352 2.6611639-.2414823 5.4836105-1.7708698 7.0157958-2.8172929 5.5642518-3.8637159 5.4836104-11.1081832 5.4836104-11.1081832v-24.38970662c-.6451306.16098816-4.9997625.8854349-5.7255344 1.04642306-1.8547506.32197632-3.3062946.64395265-3.3062946.64395265m40.5625893 3.13926921c-1.2096199-5.63458573-8.6286224-9.17632531-16.2895488-7.96891409l-11.8542756 2.25383428s.5644893 5.71507981.725772 18.35265051c-.1612827 14.3279465-.4032066 14.1669583-1.2902613 19.5600618h.6451307v.0804941h1.2902613.3225653l7.0157957-.0804941 3.0643706.0804941c-.6451306-2.2538343-1.1289786-5.3931035-1.3709026-8.6933608v-.3219763h.0806413c-.0806413-1.4488935-.1612826-2.978281-.241924-4.6686568l-.1612826-14.6499228c9.3543943-3.1392691 11.4510689 1.3683994 11.2897862 4.3466804-.2419239 5.6345857-5.6448931 7.9689141-9.4350356 7.9689141.7257719 0 .6451306.0804941 1.3709026.0804941 7.1770784 0 11.6929929-1.6098817 14.1122328-6.922491 1.20962-2.4148225 1.7741093-4.2661863.725772-9.4178075" fill="#ff6500"/><path d="m23.5192909 8.28647766c-2.0160332.4024704-3.4675772.72444673-3.4675772.72444673l-.6451306.16098816.0806413 9.41780755c2.9837292-2.7367988 6.8545131-5.876068 9.6769597-9.49830163v-1.77086979c-.6451307.08049408-4.9997625.80494081-5.6448932.96592898m-13.95095016 10.22274834v-7.88842s-5.80617581.6439527-6.0480998.6439527c-.16128266 0-1.93539193.1609881-3.38693588.2414822s-.16128266 14.0864642.08064133 20.1235203v.2414823c2.41923992-1.2074112 5.64489314-2.978281 9.27375302-5.4735975z" fill="#ffc800"/><path d="m4.82350148 42.25498c.56448931.4829645 1.20961996.9659289 1.8547506 1.2879053 3.46757722 1.6903757 6.20938242 2.3343283 9.83824232 2.012352 2.6611639-.2414822 5.4836105-1.7708698 7.0157958-2.8172928 3.4675772-2.4148225 4.7578385-6.1175502 5.2416865-8.5323727-7.3383611 4.0247041-15.4024942 6.841997-23.95047522 8.0494082m38.13035012-6.7615029c-.0806413-1.4488934-.1612826-2.978281-.1612826-4.6686567l-.0806414-7.002985c-2.9030879 2.8172928-6.1287411 5.3931034-9.515677 7.7274318-.1612827 7.7274318-.4032066 8.4518785-1.2096199 12.7985589h.6451306v.0804941h1.2902613.3225653l7.0157958-.0804941 3.0643705.0804941c-.6451306-2.2538343-1.1289786-5.3931035-1.3709026-8.6933608zm12.9026129-29.38033964c-1.6934679 3.21976325-3.5482185 6.27853834-5.7255345 9.25681934 3.0643706.7244467 3.8707839 3.3002573 3.7901426 5.2321153-.241924 5.6345857-5.6448932 7.968914-9.4350357 7.968914.725772 0 .6451306.0804941 1.3709026.0804941 7.1770784 0 11.692993-1.6098816 14.1122329-6.922491 1.1289786-2.5758106 1.7741092-4.4271744.6451306-9.4983016-.5644893-2.57581056-2.3385986-4.66865668-4.7578385-6.11755014" fill="#e62613"/><path d="m64.1625216 37.2643469c.4838479 0 3.0643705-.8854349 5.0804038-.9659289h1.2902613c.241924-7.3249614.8870546-15.6963459 1.2902613-19.801544 1.7741092-16.17931039 2.3385986-16.42079264 2.3385986-16.42079264s-3.4675773-.4024704-8.7899051.64395265c-1.3709026.24148225-3.3869359.64395265-3.3869359.64395265 1.7741093 16.09881624 2.3385986 27.60946994 2.177316 35.90036024m6.7738717 6.922491-7.1770784.0804941.4032067-4.6686567s1.9353919-.4829645 3.4675772-.6439527c1.7741093-.1609881 2.9837292 0 2.9837292 0z" fill="#2c2927"/></g><g fill="#2c2927"><path d="m82.844645 44.4453594h-7.2577197v-11.3496655c0-.9659289-.0806414-1.8513638-.1612827-2.7367987s-.241924-1.6098816-.483848-2.0123521c-.241924-.4829644-.6451306-.8854348-1.2096199-1.1269171-.483848-.2414822-1.20962-.3219763-2.177316-.3219763-.6451306 0-1.2902612.0804941-2.0160332.3219763-.6451307.2414823-1.3709026.5634586-2.1773159 1.0464231v16.3402985h-7.2577198v-23.1018014h7.2577198v2.5758106c1.2902612-1.046423 2.4998812-1.7708698 3.7095012-2.3343283 1.2096199-.5634586 2.4998812-.8049408 3.9514252-.8049408 2.4192399 0 4.3546318.7244467 5.7255344 2.1733402 1.3709027 1.4488934 2.0160333 3.6222336 2.0160333 6.5200205v14.810911zm-40.2400239-21.2504375c-5.0804039-3.9442099-12.176841-2.8977869-15.9669835 2.4148225-3.7901425 5.3126093-2.7418052 12.879053 2.3385986 16.823263s12.1768409 2.8977869 15.9669834-2.4148225c3.7901426-5.3126093 2.7418053-12.7985589-2.3385985-16.823263m-6.6125892 15.4548637c-2.7418052 0-4.1933491-2.5758106-4.1933491-5.7955739s1.4515439-5.7955739 4.1933491-5.7955739c2.7418053 0 4.1933492 2.5758106 4.1933492 5.7955739 0 3.1392692-1.4515439 5.7955739-4.1933492 5.7955739"/><path d="m49.378 21.344h7.661v23.021h-7.661z"/><path d="m49.3784928 13.2136559v5.7150797h7.5802851v-4.990633c-2.6611639.7244467-5.9674585-.4024704-7.5802851-.7244467m-27.0148457 23.826248c0-.2414822.0806413-.4024704.0806413-.6439526 0-.1609882 0-.5634586.0806413-1.1269172.0806414-1.1269171.1612827-2.8977869.241924-4.7491508.0806414-1.6098816.1612827-4.6686567.241924-9.1763252.1612827-4.1856923 0-6.6810088 0-11.99361814 0-.08049409-.4032066.08049408-1.2902613-.32197633-4.8384798-1.44889346-9.6769596-3.05877509-10.9672209-4.66865672-.96769601-1.2879053.7257719 13.36201749 1.4515439 19.88203809.6451307 5.7955739.4032067 4.2661863.6451307 7.8079259v.3219763.8049408c0 .6439527 0 1.1269172-.0806414 1.5293876s.1612827 4.4271744-4.75783848 5.8760679c-3.06437056.965929-5.8061758-.0804941-7.9028504-1.9318579 2.0966746 3.5417395 3.62885988 6.1980442 8.38669838 7.002985 2.7418052.4829645 5.0804038.0804941 7.0964371-.7244467 4.9191212-2.1733402 6.3706651-5.7150798 6.7738718-7.88842"/></g></g></svg>