<svg width="470" height="249" viewBox="0 0 470 249" xmlns="http://www.w3.org/2000/svg"><g fill="none"><path d="M3,0 L467,0 C468.656854,0 470,1.34314575 470,3 L470,249 L0,249 L0,3 C0,1.34314575 1.34314575,0 3,0 Z" fill="#E5E5EA"/><path d="M277.18,84.003 L200.462,84.003 C194.684,84.003 190,88.673 190,94.436 L190,143.126 C190,148.887 194.684,153.559 200.462,153.559 L277.18,153.559 C282.958,153.559 287.642,148.887 287.642,143.125 L287.642,94.435 C287.642,88.674 282.958,84.003 277.18,84.003 Z M280.667,124.296 L258.722,102.411 C257.358806,101.053999 255.155194,101.053999 253.792,102.411 L224.872,131.251 L213.39,119.8 C212.02669,118.442335 209.82231,118.442335 208.459,119.8 L196.975,131.253 L196.975,94.436 C196.976325,93.5122507 197.344554,92.6268622 197.998682,91.9746105 C198.652809,91.3223588 199.539251,90.956673 200.463,90.9579964 L277.181,90.9579964 C279.104218,90.9557893 280.66524,92.5127824 280.668,94.436 L280.668,124.296 L280.667,124.296 Z" fill="#C7C7CC"/></g></svg>