<svg xmlns="http://www.w3.org/2000/svg" width="50" height="31" viewBox="0 0 50 31"><g fill="none" transform="translate(.523 .558)"><rect width="13.228" height="23.771" x="17.846" y="3.232" fill="#FF5F00"/><path fill="#EB001B" d="M18.6855866,15.1176523 C18.6813517,10.4790453 20.8105757,6.09618779 24.4595576,3.23233998 C18.2614768,-1.6395008 9.36010805,-0.930422541 4.01147488,4.86122326 C-1.33715829,10.6528691 -1.33715829,19.5824356 4.01147488,25.3740814 C9.36010805,31.1657272 18.2614768,31.8748055 24.4595576,27.0029647 C20.8106008,24.1390966 18.6813832,19.7562521 18.6855866,15.1176523 Z"/><path fill="#F79E1B" d="M48.9183607 15.1176523C48.9183607 20.9053776 45.6141729 26.1851856 40.408512 28.7147822 35.2028511 31.2443788 29.0098224 30.5796747 24.4595576 27.0029647 28.1051335 24.1363747 30.2334874 19.7552768 30.2334874 15.1176523 30.2334874 10.4800278 28.1051335 6.09892993 24.4595576 3.23233998 29.0098224-.344370069 35.2028511-1.00907415 40.408512 1.52052246 45.6141729 4.05011908 48.9183607 9.32992704 48.9183607 15.1176523L48.9183607 15.1176523ZM47.4760752 24.8985194 47.4760752 24.0691341 47.6723077 24.0691341 47.6723077 23.9001654 47.1725511 23.9001654 47.1725511 24.0691341 47.3688676 24.0691341 47.3688676 24.8985194 47.4760752 24.8985194ZM48.4463194 24.8985194 48.4463194 23.8985194 48.2931296 23.8985194 48.1169319 24.5863459 47.9406838 23.8985194 47.78741 23.8985194 47.78741 24.8985194 47.8955835 24.8985194 47.8955835 24.1442075 48.0608253 24.7945331 48.1729881 24.7945331 48.3382341 24.1425614 48.3382341 24.8985194 48.4463194 24.8985194Z"/></g></svg>