<svg height="28" viewBox="0 0 86 28" width="86" xmlns="http://www.w3.org/2000/svg"><path d="m32.6507154.49091411-11.2592226 26.86321429h-7.3457951l-5.54070033-21.43628422c-.33638366-1.32045146-.62708007-1.80419894-1.65190806-2.36050854-1.67027255-.9061307-4.42852902-1.7562721-6.85308931-2.2843631l.16483248-.78071469h11.82493842c1.5072317 0 2.8621726 1.00332811 3.2043791 2.73899615l2.9262244 15.5426274 7.2320248-18.28386312h7.3010036zm28.7820792 18.09260369c.0295624-7.090036-9.8039489-7.4801694-9.7363139-10.64781955.021052-.96391164.9406201-1.98873964 2.9477243-2.25032161.9957135-.13034307 3.7391888-.22978005 6.8530893 1.20220207l1.2205665-5.6965745c-1.6720642-.60692392-3.8233967-1.19100421-6.5001328-1.19100421-6.8687663 0-11.7026578 3.65139765-11.743418 8.87990167-.0447914 3.86729233 3.4489404 6.02534363 6.0831246 7.31040983 2.708538 1.3159723 3.6173562 2.1616346 3.6070541 3.3387535-.0192603 1.8019593-2.1602908 2.5979031-4.1611241 2.6288092-3.4937318.0537497-5.5196484-.9450993-7.1352754-1.6962516l-1.2595351 5.8851464c1.6236895.7448816 4.6206843 1.3948053 7.727866 1.427503 7.3010037 0 12.0762184-3.6061583 12.0986141-9.1907542m18.137843 8.7706106h6.4271228l-5.6132624-26.86333258h-5.9312816c-1.2962439-.01105444-2.4679926.77011138-2.9562346 1.97094136l-10.4278936 24.89239122h7.2969724l1.4476591-4.0124166h8.9157348zm-7.753845-9.5181796 3.6576684-10.086135 2.1051974 10.086135zm-29.2393998-17.34503469-5.746293 26.86321429h-6.948943l5.7485326-26.86321429z" fill="#1434cb"/></svg>